<svg width="913" height="200" viewBox="0 0 913 200" fill="none" xmlns="http://www.w3.org/2000/svg">
<path fill-rule="evenodd" clip-rule="evenodd" d="M200 200H0V0H200V200ZM57.0107 67.5469V98.7354L70.9932 112H113.995V119H57.0107V147.945H128.824L147.003 130.618V99.4297L130.999 84H90.0176V77H147.003V52.2998L72.3916 52.2988L57.0107 67.5469Z" fill="white"/>
<path d="M254 115.819H267.406V121.008C267.406 127.105 272.635 132.173 278.934 132.173H287.918C294.752 132.173 299.588 128.024 299.588 122.31C299.588 104.402 255.343 100.506 255.343 75.8545C255.343 63.1351 265.669 54.3124 280.277 54.3124H286.576C300.385 54.3124 311.651 65.0834 311.651 78.4488V82.3453H298.245V78.4488C298.245 72.2204 293.016 67.284 286.576 67.284H280.277C273.039 67.284 268.748 70.5244 268.748 75.8444C268.748 89.6034 312.993 94.9233 312.993 122.3C312.993 135.282 302.132 145.145 287.918 145.145H278.934C265.124 145.145 254 134.373 254 121.008V115.819Z" fill="white"/>
<path d="M378.64 91.9353H353.837V121.785C353.837 127.63 358.531 132.173 364.568 132.173H378.65V145.155H364.568C351.162 145.155 340.431 134.767 340.431 121.795V91.9454H319.646V78.9636H340.431V62.0953H353.837V78.9636H378.64V91.9454V91.9353Z" fill="white"/>
<path d="M434.231 78.9534H447.636V145.144H434.231V137.876L423.106 145.144H412.789C399.515 145.144 388.653 134.636 388.653 121.785V102.323C388.653 89.3409 399.515 78.9635 412.789 78.9635H423.106L434.231 86.2317V78.9534ZM418.947 132.163L434.231 122.169V101.919L418.947 91.9251H412.779C406.884 91.9251 402.049 96.599 402.049 102.302V121.765C402.049 127.479 406.874 132.153 412.779 132.153H418.947V132.163Z" fill="white"/>
<path d="M523.336 78.9534V148.9C523.336 161.75 512.616 172.39 499.2 172.39H488.469C475.195 172.39 464.333 161.75 464.333 148.9H477.739C477.739 154.613 482.564 159.287 488.459 159.287H499.19C505.095 159.287 509.921 154.613 509.921 148.9V137.866L498.786 145.134H488.459C475.185 145.134 464.323 134.626 464.323 121.775V102.313C464.323 89.3308 475.185 78.9534 488.459 78.9534H498.786L509.921 86.2216V78.9534H523.336ZM494.647 132.163L509.931 122.169V101.919L494.647 91.9251H488.479C482.584 91.9251 477.759 96.599 477.759 102.302V121.765C477.759 127.479 482.584 132.153 488.479 132.153H494.647V132.163Z" fill="white"/>
<path d="M599.037 101.02V115.032H553.45V121.654C553.45 127.368 558.275 132.041 564.18 132.041H574.901C580.806 132.041 585.632 127.368 585.632 121.654V120.352H599.037V121.654C599.037 134.505 588.307 145.144 574.901 145.144H564.18C550.906 145.144 540.044 134.505 540.044 121.654V102.313C540.044 89.3308 550.906 78.9534 564.18 78.9534H574.901C587.913 78.9534 598.361 88.6847 599.037 101.02ZM585.632 104.655V102.323C585.632 96.4778 580.938 91.9453 574.901 91.9453H564.18C558.144 91.9453 553.45 96.6192 553.45 102.323V104.655H585.632Z" fill="white"/>
<path d="M650.611 78.9636C663.886 78.9636 674.747 89.3409 674.747 102.323V145.144H661.342V102.323C661.342 96.6091 656.516 91.9454 650.611 91.9454H644.443L629.16 101.939V145.155H615.754V53.0101H629.16V86.2318L640.284 78.9636H650.611Z" fill="white"/>
<path d="M737.032 78.9534H750.437V145.144H737.032V137.876L725.907 145.144H715.58C702.306 145.144 691.444 134.636 691.444 121.785V102.323C691.444 89.3409 702.306 78.9635 715.58 78.9635H725.907L737.032 86.2317V78.9534ZM721.758 132.163L737.042 122.169V101.919L721.758 91.9251H715.59C709.685 91.9251 704.86 96.599 704.86 102.302V121.765C704.86 127.479 709.685 132.153 715.59 132.153H721.758V132.163Z" fill="white"/>
<path d="M802.011 78.9534C815.286 78.9534 826.148 89.3409 826.148 102.313V145.134H812.742V102.313C812.742 96.599 807.917 91.9352 802.011 91.9352H795.843L780.56 101.929V145.144H767.154V78.9534H780.56V86.2216L791.684 78.9534H802.011Z" fill="white"/>
<path d="M888.442 53H901.848V145.144H888.442V137.876L877.318 145.144H866.991C853.717 145.144 842.855 134.636 842.855 121.785V102.323C842.855 89.3409 853.717 78.9636 866.991 78.9636H877.318L888.442 86.2318V53ZM873.149 132.163L888.432 122.169V101.919L873.149 91.9252H866.981C861.076 91.9252 856.25 96.599 856.25 102.303V121.765C856.25 127.479 861.076 132.142 866.981 132.142H873.149V132.163Z" fill="white"/>
</svg>
